<svg width="22" height="22" viewBox="0 0 22 22" fill="none" xmlns="http://www.w3.org/2000/svg">
<g clip-path="url(#clip0_1083_1188)">
<rect width="22" height="22" fill="white"/>
<path d="M17.1729 21.1173C15.9752 22.2783 14.6676 22.095 13.4089 21.5451C12.0768 20.9829 10.8548 20.9585 9.44939 21.5451C7.68961 22.3027 6.76084 22.0828 5.70986 21.1173C-0.253829 14.9703 0.626061 5.60929 7.39632 5.26711C9.04611 5.35266 10.1949 6.17144 11.1603 6.24477C12.6023 5.95147 13.9833 5.10824 15.5231 5.21823C17.3684 5.36488 18.7615 6.09812 19.6781 7.41795C15.8652 9.70322 16.7696 14.7259 20.2647 16.1313C19.5681 17.9644 18.6638 19.7853 17.1606 21.1296L17.1729 21.1173ZM11.0381 5.19379C10.8548 2.46858 13.0667 0.219972 15.6086 0C15.963 3.15294 12.749 5.49931 11.0381 5.19379Z" fill="#191919"/>
</g>
<defs>
<clipPath id="clip0_1083_1188">
<rect width="22" height="22" fill="white"/>
</clipPath>
</defs>
</svg>
