<svg width="26" height="26" viewBox="0 0 26 26" fill="none" xmlns="http://www.w3.org/2000/svg">
<path fill-rule="evenodd" clip-rule="evenodd" d="M12.9981 2.99902C11.1203 2.99902 9.33339 3.79517 8.0256 5.19006C6.72078 6.58187 5.99812 8.45696 5.99812 10.399C5.99812 13.9955 5.2766 16.236 4.60778 17.5438C4.2724 18.1997 3.94586 18.6298 3.71921 18.885C3.60564 19.0129 3.51641 19.0976 3.4627 19.1453C3.43583 19.1692 3.4178 19.1839 3.41 19.1901L3.40704 19.1924C3.06075 19.4461 2.91461 19.8932 3.04549 20.3032C3.17783 20.7177 3.563 20.999 3.99812 20.999H21.9981C22.4332 20.999 22.8184 20.7177 22.9507 20.3032C23.0816 19.8932 22.9355 19.4461 22.5892 19.1924L22.5862 19.1901C22.5784 19.1839 22.5604 19.1692 22.5335 19.1453C22.4798 19.0976 22.3906 19.0129 22.277 18.885C22.0504 18.6298 21.7238 18.1997 21.3885 17.5438C20.7196 16.236 19.9981 13.9955 19.9981 10.399C19.9981 8.45696 19.2755 6.58189 17.9707 5.19008C16.6632 3.79668 14.8752 2.99902 12.9981 2.99902ZM3.40704 19.1924L3.41 19.1901L3.40704 19.1924ZM3.41 19.1901L3.40614 19.1931L3.41 19.1901ZM19.6078 18.4544C19.7076 18.6497 19.808 18.831 19.9076 18.999H6.08869C6.18823 18.831 6.2886 18.6497 6.38846 18.4544C7.21963 16.8291 7.99812 14.2696 7.99812 10.399C7.99812 8.9471 8.53947 7.56618 9.48464 6.55798C10.4288 5.55088 11.694 4.99902 12.9981 4.99902C14.3009 4.99902 15.5671 5.55158 16.5116 6.55796L18.0599 12.2301C18.2596 15.0983 18.9154 17.1005 19.6078 18.4544ZM18.0599 12.2301C18.0199 11.6553 17.9981 11.0451 17.9981 10.399C17.9981 8.94724 17.4566 7.56613 16.5116 6.55796L18.0599 12.2301Z" fill="#646464"/>
<path d="M12.1336 22.498C11.8568 22.02 11.2451 21.8569 10.7671 22.1336C10.2891 22.4103 10.126 23.0221 10.4027 23.5C10.6661 23.9551 11.0446 24.3329 11.5002 24.5956C11.9557 24.8582 12.4723 24.9965 12.9981 24.9965C13.524 24.9965 14.0405 24.8582 14.4961 24.5956C14.9516 24.3329 15.3301 23.9551 15.5936 23.5C15.8703 23.0221 15.7071 22.4103 15.2291 22.1336C14.7512 21.8569 14.1394 22.02 13.8627 22.498C13.7749 22.6496 13.6489 22.7754 13.4971 22.8629C13.3454 22.9504 13.1733 22.9965 12.9981 22.9965C12.823 22.9965 12.6509 22.9504 12.4991 22.8629C12.3474 22.7754 12.2213 22.6496 12.1336 22.498Z" fill="#646464"/>
</svg>
