<svg width="20" height="20" viewBox="0 0 20 20" fill="none" xmlns="http://www.w3.org/2000/svg">
<path d="M7.62703 10C7.62703 10.4369 7.27287 10.7911 6.83598 10.7911C6.39909 10.7911 6.04492 10.4369 6.04492 10C6.04492 9.56315 6.39909 9.20898 6.83598 9.20898C7.27287 9.20898 7.62703 9.56315 7.62703 10Z" fill="#646464"/>
<path d="M10.7913 10C10.7913 10.4369 10.4371 10.7911 10.0002 10.7911C9.56331 10.7911 9.20915 10.4369 9.20915 10C9.20915 9.56315 9.56331 9.20898 10.0002 9.20898C10.4371 9.20898 10.7913 9.56315 10.7913 10Z" fill="#646464"/>
<path d="M13.9555 10C13.9555 10.4369 13.6013 10.7911 13.1644 10.7911C12.7275 10.7911 12.3734 10.4369 12.3734 10C12.3734 9.56315 12.7275 9.20898 13.1644 9.20898C13.6013 9.20898 13.9555 9.56315 13.9555 10Z" fill="#646464"/>
<path d="M9.99959 17.9105C14.3685 17.9105 17.9102 14.3688 17.9102 9.99992C17.9102 5.63103 14.3685 2.08936 9.99959 2.08936C5.63071 2.08936 2.08903 5.63103 2.08903 9.99992C2.08903 11.2654 2.38616 12.4614 2.91447 13.5221C3.05486 13.8039 3.10159 14.1261 3.0202 14.4303L2.54904 16.1912C2.34451 16.9557 3.04385 17.655 3.80827 17.4505L5.56919 16.9793C5.87339 16.8979 6.19557 16.9447 6.47744 17.085C7.53812 17.6133 8.73416 17.9105 9.99959 17.9105Z" stroke="#646464" stroke-width="1.5"/>
</svg>
