<svg width="20" height="20" viewBox="0 0 20 20" fill="none" xmlns="http://www.w3.org/2000/svg">
<path d="M13.8765 2.87905L14.4172 2.33837C15.313 1.44255 16.7655 1.44255 17.6613 2.33837C18.5571 3.2342 18.5571 4.68663 17.6613 5.58245L17.1206 6.12313M13.8765 2.87905C13.8765 2.87905 13.9441 4.028 14.9579 5.04177C15.9717 6.05555 17.1206 6.12313 17.1206 6.12313M13.8765 2.87905L8.90582 7.84978C8.56914 8.18646 8.4008 8.3548 8.25603 8.54041C8.08525 8.75936 7.93883 8.99627 7.81937 9.24693C7.7181 9.45943 7.64281 9.68528 7.49225 10.137L7.01019 11.5832M17.1206 6.12313L14.6353 8.60849M12.1499 11.0939C11.8132 11.4305 11.6449 11.5989 11.4593 11.7436C11.2403 11.9144 11.0034 12.0608 10.7527 12.1803C10.5402 12.2816 10.3144 12.3569 9.86269 12.5074L8.4165 12.9895M8.4165 12.9895L7.48074 13.3014C7.25846 13.3755 7.01339 13.3177 6.84771 13.152C6.68202 12.9863 6.62417 12.7412 6.69827 12.5189L7.01019 11.5832M8.4165 12.9895L7.01019 11.5832" stroke="white" stroke-width="1.2" stroke-linecap="round"/>
<path d="M18.9332 9.99984C18.9332 9.66847 18.6645 9.39984 18.3332 9.39984C18.0018 9.39984 17.7332 9.66847 17.7332 9.99984H18.9332ZM9.99984 2.2665C10.3312 2.2665 10.5998 1.99787 10.5998 1.6665C10.5998 1.33513 10.3312 1.0665 9.99984 1.0665V2.2665ZM6.13361 16.699C5.84677 16.533 5.47973 16.631 5.31381 16.9179C5.14788 17.2047 5.2459 17.5718 5.53273 17.7377L6.13361 16.699ZM2.26199 14.4669C2.42792 14.7538 2.79495 14.8518 3.08179 14.6859C3.36863 14.5199 3.46664 14.1529 3.30072 13.8661L2.26199 14.4669ZM17.7332 9.99984C17.7332 14.2708 14.2708 17.7332 9.99984 17.7332V18.9332C14.9336 18.9332 18.9332 14.9336 18.9332 9.99984H17.7332ZM9.99984 1.0665C5.06609 1.0665 1.0665 5.06609 1.0665 9.99984H2.2665C2.2665 5.72884 5.72884 2.2665 9.99984 2.2665V1.0665ZM5.53273 17.7377C6.84732 18.4981 8.37368 18.9332 9.99984 18.9332V17.7332C8.59026 17.7332 7.27046 17.3566 6.13361 16.699L5.53273 17.7377ZM1.0665 9.99984C1.0665 11.626 1.50155 13.1524 2.26199 14.4669L3.30072 13.8661C2.64308 12.7292 2.2665 11.4094 2.2665 9.99984H1.0665Z" fill="white"/>
</svg>
