<svg width="20" height="20" viewBox="0 0 20 20" fill="none" xmlns="http://www.w3.org/2000/svg">
<g clip-path="url(#clip0_20_126)">
<path d="M12.815 2.69404L6.41255 5.7682C5.92932 6.00371 5.37971 6.06557 4.85622 5.94337C4.63534 5.88859 4.41215 5.84363 4.18729 5.80863C2.43077 5.60939 1.33643 6.99921 1.33643 8.59789V9.47567C1.33643 11.0734 2.43077 12.4642 4.18729 12.263C4.41238 12.2297 4.63564 12.1851 4.85622 12.1292C5.37982 12.0073 5.92943 12.0695 6.41255 12.3054L12.815 15.3786C14.2847 16.0841 15.02 16.4373 15.8391 16.162C16.6591 15.8868 16.9402 15.2968 17.5022 14.1168C18.265 12.5319 18.6611 10.7956 18.6611 9.03678C18.6611 7.27793 18.265 5.54165 17.5022 3.95681C16.9402 2.77681 16.6591 2.18585 15.8391 1.91154C15.02 1.63627 14.2847 1.98854 12.815 2.695" stroke="#191919" stroke-width="1.36346" stroke-linecap="round" stroke-linejoin="round"/>
<path d="M10.9609 14.8108V15.292C10.9609 16.5278 10.9609 17.1457 10.7453 17.4951C10.6044 17.723 10.4028 17.9072 10.1631 18.027C9.92342 18.1469 9.65512 18.1976 9.38822 18.1737C8.97917 18.1371 8.48445 17.7656 7.49599 17.0245L6.34101 16.1582C5.40067 15.4527 5.18604 15.0244 5.18604 13.8483V12.4046M5.66728 11.9233V6.14844" stroke="#191919" stroke-width="1.36346" stroke-linecap="round" stroke-linejoin="round"/>
</g>
<defs>
<clipPath id="clip0_20_126">
<rect width="19.9974" height="19.9974" fill="white"/>
</clipPath>
</defs>
</svg>
