<svg width="20" height="20" viewBox="0 0 20 20" fill="none" xmlns="http://www.w3.org/2000/svg">
<path d="M8.03599 3.71405H11.9646C11.9646 3.19309 11.7576 2.69347 11.3892 2.32509C11.0209 1.95672 10.5212 1.74977 10.0003 1.74977C9.47932 1.74977 8.97969 1.95672 8.61132 2.32509C8.24294 2.69347 8.03599 3.19309 8.03599 3.71405ZM6.85742 3.71405C6.85742 2.88052 7.18854 2.08112 7.77794 1.49172C8.36734 0.902319 9.16674 0.571198 10.0003 0.571198C10.8338 0.571198 11.6332 0.902319 12.2226 1.49172C12.812 2.08112 13.1431 2.88052 13.1431 3.71405H18.0539C18.2101 3.71405 18.36 3.77614 18.4705 3.88665C18.5811 3.99717 18.6431 4.14705 18.6431 4.30334C18.6431 4.45963 18.5811 4.60952 18.4705 4.72003C18.36 4.83054 18.2101 4.89263 18.0539 4.89263H17.0246L16.0684 16.3664C15.9988 17.2011 15.6181 17.9792 15.0017 18.5463C14.3854 19.1135 13.5784 19.4283 12.7409 19.4283H7.25971C6.42213 19.4283 5.61516 19.1135 4.99882 18.5463C4.38248 17.9792 4.00178 17.2011 3.93221 16.3664L2.97599 4.89263H1.94671C1.79042 4.89263 1.64053 4.83054 1.53002 4.72003C1.41951 4.60952 1.35742 4.45963 1.35742 4.30334C1.35742 4.14705 1.41951 3.99717 1.53002 3.88665C1.64053 3.77614 1.79042 3.71405 1.94671 3.71405H6.85742ZM5.10685 16.2682C5.15179 16.8083 5.39805 17.3118 5.79682 17.6788C6.19559 18.0459 6.71773 18.2497 7.25971 18.2498H12.7409C13.2828 18.2497 13.805 18.0459 14.2037 17.6788C14.6025 17.3118 14.8488 16.8083 14.8937 16.2682L15.8429 4.89263H4.15849L5.10685 16.2682ZM8.23242 7.64263C8.38871 7.64263 8.5386 7.70471 8.64911 7.81522C8.75962 7.92574 8.82171 8.07562 8.82171 8.23191V14.9105C8.82171 15.0668 8.75962 15.2167 8.64911 15.3272C8.5386 15.4377 8.38871 15.4998 8.23242 15.4998C8.07613 15.4998 7.92625 15.4377 7.81573 15.3272C7.70522 15.2167 7.64314 15.0668 7.64314 14.9105V8.23191C7.64314 8.07562 7.70522 7.92574 7.81573 7.81522C7.92625 7.70471 8.07613 7.64263 8.23242 7.64263ZM12.3574 8.23191C12.3574 8.07562 12.2953 7.92574 12.1848 7.81522C12.0743 7.70471 11.9244 7.64263 11.7681 7.64263C11.6118 7.64263 11.462 7.70471 11.3514 7.81522C11.2409 7.92574 11.1789 8.07562 11.1789 8.23191V14.9105C11.1789 15.0668 11.2409 15.2167 11.3514 15.3272C11.462 15.4377 11.6118 15.4998 11.7681 15.4998C11.9244 15.4998 12.0743 15.4377 12.1848 15.3272C12.2953 15.2167 12.3574 15.0668 12.3574 14.9105V8.23191Z" fill="#FF0000"/>
</svg>
