<svg width="20" height="20" viewBox="0 0 20 20" fill="none" xmlns="http://www.w3.org/2000/svg">
<path d="M5.55556 9.77778C5.55556 10.2493 5.36825 10.7015 5.03486 11.0349C4.70146 11.3683 4.24927 11.5556 3.77778 11.5556C3.30628 11.5556 2.8541 11.3683 2.5207 11.0349C2.1873 10.7015 2 10.2493 2 9.77778C2 9.30628 2.1873 8.8541 2.5207 8.5207C2.8541 8.1873 3.30628 8 3.77778 8C4.24927 8 4.70146 8.1873 5.03486 8.5207C5.36825 8.8541 5.55556 9.30628 5.55556 9.77778ZM11.7778 9.77778C11.7778 10.2493 11.5905 10.7015 11.2571 11.0349C10.9237 11.3683 10.4715 11.5556 10 11.5556C9.5285 11.5556 9.07632 11.3683 8.74292 11.0349C8.40952 10.7015 8.22222 10.2493 8.22222 9.77778C8.22222 9.30628 8.40952 8.8541 8.74292 8.5207C9.07632 8.1873 9.5285 8 10 8C10.4715 8 10.9237 8.1873 11.2571 8.5207C11.5905 8.8541 11.7778 9.30628 11.7778 9.77778ZM18 9.77778C18 10.2493 17.8127 10.7015 17.4793 11.0349C17.1459 11.3683 16.6937 11.5556 16.2222 11.5556C15.7507 11.5556 15.2985 11.3683 14.9651 11.0349C14.6317 10.7015 14.4444 10.2493 14.4444 9.77778C14.4444 9.30628 14.6317 8.8541 14.9651 8.5207C15.2985 8.1873 15.7507 8 16.2222 8C16.6937 8 17.1459 8.1873 17.4793 8.5207C17.8127 8.8541 18 9.30628 18 9.77778Z" fill="#646464"/>
</svg>
