<svg width="20" height="20" viewBox="0 0 20 20" fill="none" xmlns="http://www.w3.org/2000/svg">
<path d="M16.3039 12.1705V16.1183C16.3037 16.6768 16.0817 17.2125 15.6867 17.6074C15.2917 18.0024 14.7561 18.2244 14.1976 18.2246H3.88275C3.60513 18.2245 3.33026 18.1695 3.07394 18.0629C2.81763 17.9562 2.58492 17.7999 2.38919 17.603C2.19345 17.4061 2.03856 17.1725 1.93339 16.9156C1.82823 16.6586 1.77488 16.3835 1.7764 16.1058V5.80259C1.77475 5.5254 1.82813 5.25064 1.93344 4.99423C2.03876 4.73782 2.19391 4.50487 2.38992 4.30886C2.58592 4.11286 2.81888 3.9577 3.07529 3.85239C3.3317 3.74708 3.60646 3.6937 3.88364 3.69535H7.83049" stroke="white" stroke-width="1.3" stroke-linecap="round" stroke-linejoin="round"/>
<path d="M16.304 7.32837L12.6719 3.69538M5.40771 13.3816V11.4566C5.40949 11.1392 5.53575 10.8342 5.75892 10.6093L14.2341 2.13407C14.3467 2.02057 14.4806 1.93049 14.6282 1.86901C14.7758 1.80753 14.934 1.77588 15.0939 1.77588C15.2538 1.77588 15.412 1.80753 15.5596 1.86901C15.7072 1.93049 15.8411 2.02057 15.9537 2.13407L17.8662 4.04659C17.9799 4.15905 18.0702 4.29294 18.1318 4.44053C18.1934 4.58811 18.2252 4.74645 18.2252 4.90638C18.2252 5.06631 18.1934 5.22465 18.1318 5.37223C18.0702 5.51982 17.9799 5.65371 17.8662 5.76617L9.39102 14.2414C9.1656 14.4651 8.86127 14.5912 8.54368 14.5926H6.61871C6.29753 14.5926 5.98951 14.465 5.76241 14.2379C5.5353 14.0108 5.40771 13.7027 5.40771 13.3816Z" stroke="white" stroke-width="1.3" stroke-linecap="round" stroke-linejoin="round"/>
</svg>
