<svg width="22" height="22" viewBox="0 0 22 22" fill="none" xmlns="http://www.w3.org/2000/svg">
<g clip-path="url(#clip0_1079_1102)">
<path d="M21.7844 8.84538H20.8984V8.79973H10.9987V13.1996H17.2151C16.3082 15.7609 13.8712 17.5995 10.9987 17.5995C7.35394 17.5995 4.39889 14.6444 4.39889 10.9997C4.39889 7.35492 7.35394 4.39986 10.9987 4.39986C12.6811 4.39986 14.2117 5.03454 15.3771 6.07126L18.4883 2.96001C16.5238 1.12911 13.896 0 10.9987 0C4.92412 0 -0.000976562 4.9251 -0.000976562 10.9997C-0.000976562 17.0742 4.92412 21.9993 10.9987 21.9993C17.0732 21.9993 21.9983 17.0742 21.9983 10.9997C21.9983 10.2621 21.9224 9.5422 21.7844 8.84538Z" fill="#FFC107"/>
<path d="M1.26855 5.87987L4.88249 8.53023C5.86036 6.10921 8.22859 4.39986 11 4.39986C12.6823 4.39986 14.213 5.03454 15.3784 6.07126L18.4896 2.96001C16.5251 1.12911 13.8973 0 11 0C6.77498 0 3.111 2.38528 1.26855 5.87987Z" fill="#FF3D00"/>
<path d="M10.9985 22.0005C13.8397 22.0005 16.4213 20.9132 18.3732 19.145L14.9688 16.2642C13.8274 17.1323 12.4326 17.6018 10.9985 17.6006C8.13749 17.6006 5.70821 15.7763 4.79304 13.2305L1.20605 15.9941C3.0265 19.5564 6.72348 22.0005 10.9985 22.0005Z" fill="#4CAF50"/>
<path d="M21.7838 8.84667H20.8977V8.80103H10.998V13.2009H17.2145C16.7807 14.4199 15.9992 15.4851 14.9667 16.2648L14.9684 16.2637L18.3728 19.1446C18.1319 19.3634 21.9977 16.5008 21.9977 11.001C21.9977 10.2634 21.9218 9.5435 21.7838 8.84667Z" fill="#1976D2"/>
</g>
<defs>
<clipPath id="clip0_1079_1102">
<rect width="22" height="22" fill="white"/>
</clipPath>
</defs>
</svg>
