<svg width="20" height="20" viewBox="0 0 20 20" fill="none" xmlns="http://www.w3.org/2000/svg">
<g clip-path="url(#clip0_20_136)">
<path d="M9.99877 18.331C11.0932 18.3324 12.1771 18.1176 13.1882 17.6987C14.1993 17.2799 15.1177 16.6654 15.8905 15.8905C16.6654 15.1177 17.2799 14.1993 17.6987 13.1882C18.1176 12.1771 18.3324 11.0932 18.331 9.99877C18.3324 8.90436 18.1175 7.82046 17.6987 6.80936C17.2799 5.79826 16.6654 4.87989 15.8905 4.10703C15.1177 3.33214 14.1993 2.71762 13.1882 2.2988C12.1771 1.87997 11.0932 1.66509 9.99877 1.66651C8.90436 1.66512 7.82046 1.88001 6.80936 2.29883C5.79826 2.71766 4.87989 3.33216 4.10703 4.10703C3.33216 4.87989 2.71766 5.79826 2.29883 6.80936C1.88001 7.82046 1.66512 8.90436 1.66651 9.99877C1.66509 11.0932 1.87997 12.1771 2.2988 13.1882C2.71762 14.1993 3.33214 15.1177 4.10703 15.8905C4.87989 16.6654 5.79826 17.2799 6.80936 17.6987C7.82046 18.1175 8.90436 18.3324 9.99877 18.331Z" stroke="#191919" stroke-width="1.36346" stroke-linejoin="round"/>
<path d="M9.99919 11.9256V10.2591C10.4936 10.2591 10.9769 10.1125 11.3879 9.83785C11.799 9.56318 12.1194 9.17279 12.3086 8.71603C12.4978 8.25927 12.5473 7.75667 12.4508 7.27178C12.3544 6.78689 12.1163 6.34149 11.7667 5.99191C11.4171 5.64232 10.9717 5.40425 10.4869 5.3078C10.002 5.21135 9.49936 5.26085 9.0426 5.45004C8.58585 5.63924 8.19545 5.95963 7.92078 6.3707C7.64612 6.78177 7.49951 7.26506 7.49951 7.75944" stroke="#191919" stroke-width="1.36346" stroke-linecap="round" stroke-linejoin="round"/>
<path fill-rule="evenodd" clip-rule="evenodd" d="M9.99905 15.6749C10.2753 15.6749 10.5402 15.5651 10.7355 15.3698C10.9309 15.1745 11.0406 14.9096 11.0406 14.6333C11.0406 14.3571 10.9309 14.0922 10.7355 13.8969C10.5402 13.7015 10.2753 13.5918 9.99905 13.5918C9.72282 13.5918 9.4579 13.7015 9.26258 13.8969C9.06725 14.0922 8.95752 14.3571 8.95752 14.6333C8.95752 14.9096 9.06725 15.1745 9.26258 15.3698C9.4579 15.5651 9.72282 15.6749 9.99905 15.6749Z" fill="#191919"/>
</g>
<defs>
<clipPath id="clip0_20_136">
<rect width="19.9974" height="19.9974" fill="white"/>
</clipPath>
</defs>
</svg>
