<svg width="26" height="26" viewBox="0 0 26 26" fill="none" xmlns="http://www.w3.org/2000/svg">
<path d="M12.9998 23.8332C18.9829 23.8332 23.8332 18.9829 23.8332 12.9998C23.8332 7.01675 18.9829 2.1665 12.9998 2.1665C7.01675 2.1665 2.1665 7.01675 2.1665 12.9998C2.1665 18.9829 7.01675 23.8332 12.9998 23.8332Z" stroke="#646464" stroke-width="1.5" stroke-linecap="square"/>
<path d="M13.0001 23.5703C15.8169 21.0096 17.2253 17.4886 17.2253 13.0073C17.2253 8.52606 15.8169 5.00506 13.0001 2.44434C10.1833 5.00506 8.7749 8.52606 8.7749 13.0073C8.7749 17.4886 10.1833 21.0096 13.0001 23.5703Z" stroke="#646464" stroke-width="1.5" stroke-linecap="round"/>
<path d="M2.7085 9.75H23.2918M2.7085 16.25H23.2918" stroke="#646464" stroke-width="1.5" stroke-linecap="round"/>
</svg>
