<svg width="20" height="20" viewBox="0 0 20 20" fill="none" xmlns="http://www.w3.org/2000/svg">
<path d="M17.4793 10.1542L16.7403 10.0264L16.7403 10.0264L17.4793 10.1542ZM16.8914 13.554L16.1523 13.4262L16.1523 13.4262L16.8914 13.554ZM5.78148 17.0641L5.03426 17.1287L5.03426 17.1287L5.78148 17.0641ZM5.10467 9.23684L5.85188 9.17223L5.85188 9.17223L5.10467 9.23684ZM11.6625 4.35102L12.4026 4.47229L12.4026 4.47229L11.6625 4.35102ZM11.1102 7.72149L11.8504 7.84275L11.8504 7.84275L11.1102 7.72149ZM5.58178 8.06441L5.09219 7.49625L5.09219 7.49625L5.58178 8.06441ZM6.78073 7.03125L7.27032 7.5994L7.27032 7.5994L6.78073 7.03125ZM8.76504 3.98629L8.03907 3.79797L8.03907 3.79797L8.76504 3.98629ZM9.16147 2.45808L9.88744 2.6464L9.88744 2.6464L9.16147 2.45808ZM10.5563 1.72013L10.3269 2.43419L10.3269 2.43419L10.5563 1.72013ZM10.6771 1.75894L10.9065 1.04488L10.9065 1.04488L10.6771 1.75894ZM8.21829 5.38535L8.87982 5.73872L8.87982 5.73872L8.21829 5.38535ZM11.5872 2.70611L10.8613 2.89443L10.8613 2.89443L11.5872 2.70611ZM9.7285 1.77683L9.40292 1.10118L9.40292 1.10118L9.7285 1.77683ZM3.30967 17.8921L2.56245 17.9567L2.56245 17.9567L3.30967 17.8921ZM2.5 8.52834L3.24721 8.46373C3.21261 8.06358 2.86893 7.76172 2.46767 7.77904C2.0664 7.79635 1.75 8.1267 1.75 8.52834H2.5ZM16.7403 10.0264L16.1523 13.4262L17.6304 13.6818L18.2183 10.282L16.7403 10.0264ZM11.0375 17.5832H7.16362V19.0832H11.0375V17.5832ZM6.52869 16.9995L5.85188 9.17223L4.35746 9.30145L5.03426 17.1287L6.52869 16.9995ZM16.1523 13.4262C15.7409 15.8052 13.5936 17.5832 11.0375 17.5832V19.0832C14.2835 19.0832 17.0879 16.8185 17.6304 13.6818L16.1523 13.4262ZM10.9223 4.22976L10.3701 7.60022L11.8504 7.84275L12.4026 4.47229L10.9223 4.22976ZM6.07138 8.63256L7.27032 7.5994L6.29114 6.46309L5.09219 7.49625L6.07138 8.63256ZM9.49102 4.17461L9.88744 2.6464L8.4355 2.26976L8.03907 3.79797L9.49102 4.17461ZM10.3269 2.43419L10.4477 2.473L10.9065 1.04488L10.7857 1.00607L10.3269 2.43419ZM8.87982 5.73872C9.14441 5.24341 9.34988 4.71869 9.49102 4.17461L8.03907 3.79797C7.92794 4.22637 7.76595 4.64035 7.55676 5.03198L8.87982 5.73872ZM10.4477 2.473C10.6639 2.54243 10.8128 2.70765 10.8613 2.89443L12.3132 2.51779C12.1308 1.81476 11.5932 1.26549 10.9065 1.04488L10.4477 2.473ZM9.88744 2.6464C9.90711 2.57058 9.96318 2.49628 10.0541 2.45248L9.40292 1.10118C8.92757 1.33025 8.56938 1.75365 8.4355 2.26976L9.88744 2.6464ZM10.0541 2.45248C10.1374 2.41234 10.2364 2.40512 10.3269 2.43419L10.7857 1.00607C10.3306 0.859853 9.83407 0.893426 9.40292 1.10118L10.0541 2.45248ZM11.7947 9.27834H16.1123V7.77834H11.7947V9.27834ZM4.05688 17.8275L3.24721 8.46373L1.75279 8.59295L2.56245 17.9567L4.05688 17.8275ZM3.25 17.9271V8.52834H1.75V17.9271H3.25ZM2.56245 17.9567C2.54516 17.7567 2.70278 17.5832 2.90559 17.5832V19.0832C3.584 19.0832 4.11519 18.5019 4.05688 17.8275L2.56245 17.9567ZM12.4026 4.47229C12.5092 3.82168 12.4787 3.15594 12.3132 2.51779L10.8613 2.89443C10.9744 3.3304 10.9952 3.78525 10.9223 4.22976L12.4026 4.47229ZM7.16362 17.5832C6.83368 17.5832 6.5573 17.3304 6.52869 16.9995L5.03426 17.1287C5.12981 18.2336 6.05394 19.0832 7.16362 19.0832V17.5832ZM7.27032 7.5994C7.83892 7.10943 8.46472 6.51582 8.87982 5.73872L7.55676 5.03198C7.27961 5.55081 6.8351 5.99435 6.29114 6.46309L7.27032 7.5994ZM18.2183 10.282C18.4443 8.97531 17.4394 7.77834 16.1123 7.77834V9.27834C16.5068 9.27834 16.808 9.63471 16.7403 10.0264L18.2183 10.282ZM2.90559 17.5832C3.0966 17.5832 3.25 17.738 3.25 17.9271H1.75C1.75 18.5648 2.26657 19.0832 2.90559 19.0832V17.5832ZM10.3701 7.60022C10.2262 8.47852 10.9032 9.27834 11.7947 9.27834V7.77834C11.8304 7.77834 11.8557 7.80996 11.8504 7.84275L10.3701 7.60022ZM5.85188 9.17223C5.83416 8.96723 5.916 8.76645 6.07138 8.63256L5.09219 7.49625C4.57147 7.94497 4.29825 8.6167 4.35746 9.30145L5.85188 9.17223Z" fill="#646464"/>
</svg>
