<svg width="20" height="20" viewBox="0 0 20 20" fill="none" xmlns="http://www.w3.org/2000/svg">
<g clip-path="url(#clip0_338_258)">
<path d="M2.08301 5.9165C1.66879 5.9165 1.33301 6.25229 1.33301 6.6665C1.33301 7.08072 1.66879 7.4165 2.08301 7.4165V5.9165ZM18.333 5.9165H2.08301V7.4165H18.333V5.9165Z" fill="#646464"/>
<path d="M8.74967 2.0835L5.83301 6.66683" stroke="#646464" stroke-width="1.5" stroke-linecap="round"/>
<path d="M14.1667 2.0835L11.25 6.66683" stroke="#646464" stroke-width="1.5" stroke-linecap="round"/>
<path d="M12.4997 12.0835C12.4997 11.5557 11.948 11.1997 10.8446 10.4878C9.72622 9.76621 9.16701 9.40539 8.75001 9.67032C8.33301 9.93524 8.33301 10.6513 8.33301 12.0835C8.33301 13.5157 8.33301 14.2318 8.75001 14.4967C9.16701 14.7616 9.72622 14.4008 10.8446 13.6792C11.948 12.9672 12.4997 12.6113 12.4997 12.0835Z" stroke="#646464" stroke-width="1.5" stroke-linecap="round"/>
<path d="M18.3337 9.99984C18.3337 13.9282 18.3337 15.8924 17.1133 17.1128C15.8929 18.3332 13.9287 18.3332 10.0003 18.3332C6.07195 18.3332 4.10777 18.3332 2.88738 17.1128C1.66699 15.8924 1.66699 13.9282 1.66699 9.99984C1.66699 6.07147 1.66699 4.10728 2.88738 2.88689C4.10777 1.6665 6.07195 1.6665 10.0003 1.6665C13.9287 1.6665 15.8929 1.6665 17.1133 2.88689C17.9247 3.69834 18.1966 4.83863 18.2877 6.6665" stroke="#646464" stroke-width="1.5" stroke-linecap="round"/>
</g>
</svg>
