<svg width="20" height="20" viewBox="0 0 20 20" fill="none" xmlns="http://www.w3.org/2000/svg">
<g clip-path="url(#clip0_20_130)">
<path d="M16.6646 9.99876V4.79027C16.6647 4.7245 16.6518 4.65936 16.6266 4.5986C16.6014 4.53783 16.5645 4.48263 16.518 4.43615L13.895 1.81315C13.8013 1.71937 13.6742 1.66662 13.5417 1.6665H3.83294C3.70035 1.6665 3.57319 1.71918 3.47944 1.81293C3.38568 1.90669 3.33301 2.03385 3.33301 2.16644V17.8311C3.33301 17.9637 3.38568 18.0908 3.47944 18.1846C3.57319 18.2784 3.70035 18.331 3.83294 18.331H9.16559M6.66591 8.33231H13.3317M6.66591 4.99941H9.99882M6.66591 11.6652H9.16559" stroke="#101010" stroke-width="1.36346" stroke-linecap="round" stroke-linejoin="round"/>
<path d="M13.3315 1.6665V4.49947C13.3315 4.63206 13.3842 4.75922 13.478 4.85298C13.5717 4.94674 13.6989 4.99941 13.8315 4.99941H16.6644M13.5865 14.2591L14.3439 12.6534C14.3643 12.6075 14.3977 12.5685 14.4398 12.5412C14.4819 12.5138 14.5311 12.4992 14.5814 12.4992C14.6316 12.4992 14.6808 12.5138 14.7229 12.5412C14.7651 12.5685 14.7984 12.6075 14.8188 12.6534L15.5771 14.2591L17.2702 14.5182C17.4877 14.5515 17.5743 14.8315 17.4177 14.9915L16.192 16.2413L16.4811 18.0061C16.5178 18.2327 16.2903 18.406 16.0962 18.2985L14.5814 17.4653L13.0666 18.2985C12.8716 18.406 12.645 18.2327 12.6816 18.0061L12.9707 16.2413L11.7459 14.9915C11.5876 14.8315 11.6751 14.5515 11.8925 14.5182L13.5865 14.2591Z" stroke="#101010" stroke-width="1.36346" stroke-linecap="round" stroke-linejoin="round"/>
</g>
<defs>
<clipPath id="clip0_20_130">
<rect width="19.9974" height="19.9974" fill="white"/>
</clipPath>
</defs>
</svg>
