<svg width="24" height="24" viewBox="0 0 24 24" fill="none" xmlns="http://www.w3.org/2000/svg">
<path fill-rule="evenodd" clip-rule="evenodd" d="M9.3999 7.40039C8.29533 7.40039 7.3999 8.29582 7.3999 9.40039V20.0004C7.3999 21.105 8.29533 22.0004 9.3999 22.0004H19.9999C21.1045 22.0004 21.9999 21.105 21.9999 20.0004V9.40039C21.9999 8.29582 21.1045 7.40039 19.9999 7.40039H9.3999ZM10.3999 9.40039C9.84762 9.40039 9.3999 9.84811 9.3999 10.4004V19.0004C9.3999 19.5527 9.84762 20.0004 10.3999 20.0004H18.9999C19.5522 20.0004 19.9999 19.5527 19.9999 19.0004V10.4004C19.9999 9.84811 19.5522 9.40039 18.9999 9.40039H10.3999Z" fill="#646464"/>
<path fill-rule="evenodd" clip-rule="evenodd" d="M2 4C2 2.89543 2.89543 2 4 2H14.6C15.7046 2 16.6 2.89543 16.6 4V5.80078H14.6V5C14.6 4.44772 14.1523 4 13.6 4H5C4.44772 4 4 4.44771 4 5V13.6C4 14.1523 4.44771 14.6 5 14.6H5.7998V16.6H4C2.89543 16.6 2 15.7046 2 14.6V4Z" fill="#646464"/>
</svg>
