<svg width="20" height="20" viewBox="0 0 20 20" fill="none" xmlns="http://www.w3.org/2000/svg">
<g clip-path="url(#clip0_1155_145)">
<path d="M10.0063 0.800049C7.24894 0.800049 5.46144 2.6508 3.34761 3.32547C2.48778 3.60047 2.05786 3.73705 1.88369 3.93047C1.70953 4.12297 1.65911 4.40622 1.55736 4.97088C0.466527 11.0172 2.84986 16.607 8.53319 18.7832C9.14278 19.017 9.44803 19.1334 10.009 19.1334C10.57 19.1334 10.8762 19.016 11.4867 18.7823C17.1691 16.607 19.5497 11.0172 18.4589 4.97088C18.3571 4.40622 18.3058 4.12297 18.1316 3.92955C17.9574 3.73613 17.5284 3.59955 16.6686 3.32547C14.5539 2.6508 12.7636 0.800049 10.0063 0.800049Z" stroke="#646464" stroke-width="1.5" stroke-linecap="round" stroke-linejoin="round"/>
<path d="M8.4041 8.09573C8.4041 8.04073 8.41143 7.72357 8.41326 7.32573C8.41326 6.9609 8.3821 6.61073 8.55626 6.2899C9.2071 4.99373 11.0771 5.12573 11.5391 6.44573C11.6188 6.66298 11.6243 7.00673 11.6216 7.32573C11.6188 7.73182 11.6271 8.09573 11.6271 8.09573M8.48385 8.48165C7.49385 8.48165 6.99885 9.19665 6.88885 9.63665C6.77885 10.0766 6.77885 11.6716 6.84485 12.3316C7.06485 13.1566 7.61485 13.4976 8.15385 13.6076C8.64885 13.6516 10.7388 13.6352 11.3438 13.6352C12.2238 13.6517 12.8838 13.3216 13.1588 12.3316C13.2138 12.0016 13.2688 10.1866 13.1313 9.63665C12.8398 8.75665 12.1138 8.48165 11.5638 8.48165H8.48385Z" stroke="#646464" stroke-width="1.5" stroke-linecap="round" stroke-linejoin="round"/>
</g>
<defs>
<clipPath id="clip0_1155_145">
<rect width="20" height="20" fill="white"/>
</clipPath>
</defs>
</svg>
