<svg width="20" height="20" viewBox="0 0 20 20" fill="none" xmlns="http://www.w3.org/2000/svg">
<g clip-path="url(#clip0_338_285)">
<path d="M2.36246 5.24108H17.6486M2.23231 14.5374H17.7885M5.08185 8.41462V9.88508M5.08185 9.88508L4.10154 11.3569M5.08185 9.88508L6.06354 11.3569M5.08185 9.88508L3.61138 9.39492M5.08185 9.88508L6.55369 9.39492M9.94462 8.41462V9.88508M9.94462 9.88508L8.96431 11.3569M9.94462 9.88508L10.9277 11.3569M9.94462 9.88508L8.47415 9.39492M9.94462 9.88508L11.4165 9.39492M14.8074 8.41462V9.88508M14.8074 9.88508L13.8271 11.3569M14.8074 9.88508L15.7891 11.3569M14.8074 9.88508L13.3369 9.39492M14.8074 9.88508L16.2792 9.39492M1 10C1 12.3869 1.94821 14.6761 3.63604 16.364C5.32387 18.0518 7.61305 19 10 19C12.3869 19 14.6761 18.0518 16.364 16.364C18.0518 14.6761 19 12.3869 19 10C19 7.61305 18.0518 5.32387 16.364 3.63604C14.6761 1.94821 12.3869 1 10 1C7.61305 1 5.32387 1.94821 3.63604 3.63604C1.94821 5.32387 1 7.61305 1 10Z" stroke="#646464" stroke-width="1.5" stroke-linecap="round" stroke-linejoin="round"/>
</g>
</svg>
