<svg width="20" height="20" viewBox="0 0 20 20" fill="none" xmlns="http://www.w3.org/2000/svg">
<path d="M10.125 1.75C10.5 3.875 11.75 4.875 12.875 5.75C14.25 6.875 15.625 8 16.125 11.375C16.25 13.5 15.75 15.5 14.375 16.875C13.375 18.125 11.875 18.75 10 18.75C5.875 18.75 2.5 15.375 2.5 11.25C2.5 10.5 2.625 9.875 2.875 9.125C3.25 11.125 4.125 13.25 6 13.625H6.25C7.125 13.625 7.5 13.25 7.75 12.875C8.125 12.125 7.75 11.375 7.25 10.75C6.875 10.25 6.375 9.5 6.25 8.5C5.75 5.375 7 3.25 10.125 1.75ZM11.25 0C7.5 1.25 4.25 3.5 5 8.75C5.375 11.25 7.5 12.5 6.25 12.5C3.5 11.875 3.75 5 3.75 5C2.5 6.25 1.25 8.75 1.25 11.25C1.25 16.125 5.125 20 10 20C14.875 20 17.875 16.125 17.5 11.25C16.25 3.75 11.125 5.625 11.25 0Z" fill="#646464"/>
</svg>
