<svg width="20" height="20" viewBox="0 0 20 20" fill="none" xmlns="http://www.w3.org/2000/svg">
<g clip-path="url(#clip0_1155_114)">
<path d="M18.5438 5.49871L18.0878 4.70695C17.7435 4.10758 17.5709 3.8079 17.2773 3.68858C16.9847 3.56833 16.6533 3.6636 15.9896 3.85137L14.8634 4.16955C14.4397 4.2676 13.9957 4.2121 13.6098 4.01231L13.2987 3.83287C12.9673 3.62006 12.7124 3.30666 12.5713 2.93844L12.263 2.01534C12.0599 1.40487 11.9584 1.09963 11.7174 0.925741C11.4765 0.75 11.1553 0.75 10.5146 0.75H9.48537C8.84473 0.75 8.52441 0.75 8.28256 0.925741C8.04163 1.09963 7.94101 1.40487 7.73793 2.01534L7.42961 2.93844C7.28826 3.3068 7.03305 3.6202 6.70128 3.83287L6.39019 4.01324C6.00433 4.2121 5.5594 4.2676 5.13661 4.17048L4.01042 3.85137C3.34671 3.6636 3.01531 3.56926 2.72269 3.68858C2.42914 3.8079 2.25652 4.10758 1.9122 4.70603L1.45711 5.49871C1.13402 6.06108 0.972478 6.34135 1.00386 6.64011C1.03525 6.93979 1.25126 7.18028 1.68327 7.66218L2.63499 8.72865C2.86762 9.02371 3.03285 9.53799 3.03285 10.0005C3.03285 10.4629 2.86762 10.9772 2.63592 11.2723L1.68327 12.3378C1.25126 12.8197 1.03525 13.0611 1.00386 13.3599C0.972478 13.6587 1.1331 13.9398 1.45619 14.5013L1.9122 15.294C2.25652 15.8924 2.42914 16.1921 2.72269 16.3114C3.01624 16.4307 3.34671 16.3373 4.01042 16.1486L5.13661 15.8304C5.56022 15.7333 6.00445 15.789 6.39111 15.9877L6.70128 16.1671C7.0336 16.3799 7.28837 16.6944 7.42869 17.0625L7.737 17.9847C7.94009 18.5951 8.04163 18.9004 8.28256 19.0761C8.52441 19.25 8.84473 19.25 9.48537 19.25H10.5146C11.1553 19.25 11.4765 19.25 11.7174 19.0752C11.9584 18.9004 12.0599 18.5951 12.2621 17.9847L12.5713 17.0625C12.7116 16.6934 12.9664 16.3799 13.2987 16.1671L13.6089 15.9877C13.9966 15.7888 14.4397 15.7324 14.8643 15.8304L15.9905 16.1486C16.6533 16.3373 16.9847 16.4317 17.2773 16.3123C17.5709 16.1921 17.7435 15.8924 18.0878 15.294L18.5429 14.5013C18.866 13.9398 19.0275 13.6596 18.9961 13.3599C18.9647 13.0602 18.7487 12.8197 18.3167 12.3378L17.365 11.2723C17.1324 10.9763 16.9671 10.4629 16.9671 10.0005C16.9671 9.53799 17.1324 9.02371 17.3641 8.72865L18.3167 7.66218C18.7487 7.1812 18.9647 6.93979 18.9961 6.64011C19.0275 6.34042 18.8669 6.06108 18.5438 5.49871Z" stroke="#646464" stroke-width="1.5" stroke-linecap="round" stroke-linejoin="round"/>
<path d="M6.5 13.5C6.85469 12.9218 7.36489 12.4417 7.97929 12.1079C8.59368 11.7742 9.29062 11.5986 10 11.5988C11.496 11.5988 12.801 12.3631 13.5 13.5M12 7.38235C12 7.88158 11.7893 8.36037 11.4142 8.71338C11.0391 9.06639 10.5304 9.26471 10 9.26471C9.46957 9.26471 8.96086 9.06639 8.58579 8.71338C8.21071 8.36037 8 7.88158 8 7.38235C8 6.88312 8.21071 6.40434 8.58579 6.05133C8.96086 5.69832 9.46957 5.5 10 5.5C10.5304 5.5 11.0391 5.69832 11.4142 6.05133C11.7893 6.40434 12 6.88312 12 7.38235Z" stroke="#646464" stroke-width="1.5" stroke-linecap="round" stroke-linejoin="round"/>
</g>
<defs>
<clipPath id="clip0_1155_114">
<rect width="20" height="20" fill="white"/>
</clipPath>
</defs>
</svg>
