<svg width="20" height="20" viewBox="0 0 20 20" fill="none" xmlns="http://www.w3.org/2000/svg">
<path d="M14.6464 13.394L15.9857 9.37609C17.1557 5.86612 17.7407 4.11114 16.8143 3.18474C15.8879 2.25835 14.1329 2.84334 10.6229 4.01333L6.60504 5.35263C3.77216 6.29692 2.35571 6.76907 1.9532 7.46144C1.57029 8.12011 1.57029 8.93359 1.9532 9.59225C2.35571 10.2846 3.77216 10.7568 6.60504 11.7011C7.05991 11.8527 7.28734 11.9285 7.47744 12.0558C7.66167 12.1791 7.81993 12.3374 7.94326 12.5216C8.07052 12.7117 8.14634 12.9391 8.29796 13.394C9.24225 16.2269 9.7144 17.6433 10.4068 18.0458C11.0654 18.4287 11.8789 18.4287 12.5376 18.0458C13.2299 17.6433 13.7021 16.2269 14.6464 13.394Z" stroke="#646464" stroke-width="1.5"/>
<path d="M13.9865 6.01355L10.7012 9.2627" stroke="#646464" stroke-width="1.5" stroke-linecap="square"/>
</svg>
