<svg width="20" height="20" viewBox="0 0 20 20" fill="none" xmlns="http://www.w3.org/2000/svg">
<path d="M8.18311 6.36452V4.54603C8.18311 4.06374 8.3747 3.6012 8.71573 3.26016C9.05676 2.91913 9.5193 2.72754 10.0016 2.72754H16.3663C16.8486 2.72754 17.3112 2.91913 17.6522 3.26016C17.9932 3.6012 18.1848 4.06374 18.1848 4.54603V15.457C18.1848 15.9393 17.9932 16.4018 17.6522 16.7429C17.3112 17.0839 16.8486 17.2755 16.3663 17.2755H10.0016C9.5193 17.2755 9.05676 17.0839 8.71573 16.7429C8.3747 16.4018 8.18311 15.9393 8.18311 15.457V13.6385" stroke="#191919" stroke-width="1.36387" stroke-linecap="round" stroke-linejoin="round"/>
<path d="M12.7293 10.0017H1.81836M1.81836 10.0017L4.5461 7.27393M1.81836 10.0017L4.5461 12.7294" stroke="#191919" stroke-width="1.36387" stroke-linecap="round" stroke-linejoin="round"/>
</svg>
