<svg width="20" height="20" viewBox="0 0 20 20" fill="none" xmlns="http://www.w3.org/2000/svg">
<path d="M10 19C8.75733 19 7.58867 18.7633 6.494 18.29C5.39933 17.816 4.447 17.174 3.637 16.364C2.82633 15.5533 2.18433 14.6007 1.711 13.506C1.237 12.4113 1 11.2427 1 10C1 8.75733 1.23667 7.58867 1.71 6.494C2.18333 5.39933 2.82567 4.447 3.637 3.637C4.44833 2.827 5.40067 2.18467 6.494 1.71C7.58933 1.23667 8.758 1 10 1C11.242 1 12.4107 1.23667 13.506 1.71C14.6007 2.184 15.553 2.82633 16.363 3.637C17.1737 4.447 17.8157 5.39933 18.289 6.494C18.763 7.58933 19 8.758 19 10C19 11.242 18.7633 12.4107 18.29 13.506C17.816 14.6007 17.174 15.553 16.364 16.363C15.5533 17.1737 14.6007 17.8157 13.506 18.289C12.4113 18.763 11.2427 19 10 19ZM14.654 8.077L16.389 7.511L16.866 5.815C16.3327 4.951 15.6587 4.21567 14.844 3.609C14.03 3.00167 13.1217 2.55633 12.119 2.273L10.5 3.416V5.162L14.654 8.077ZM5.346 8.077L9.5 5.162V3.416L7.88 2.273C6.878 2.55633 5.97633 3.00167 5.175 3.609C4.37367 4.21567 3.70633 4.951 3.173 5.815L3.65 7.511L5.346 8.077ZM4.027 15.354L5.6 15.215L6.58 13.596L5.092 9.092L3.308 8.477L2 9.419C2 10.5923 2.14333 11.6473 2.43 12.584C2.718 13.5207 3.25033 14.444 4.027 15.354ZM10 18C10.4333 18 10.8713 17.9633 11.314 17.89C11.756 17.8167 12.2153 17.707 12.692 17.561L13.546 15.715L12.666 14.269H7.334L6.491 15.716L7.345 17.561C7.78367 17.7077 8.22733 17.8177 8.676 17.891C9.12533 17.9637 9.56667 18 10 18ZM7.558 13.27H12.481L13.958 8.808L10 6.027L6.054 8.807L7.558 13.27ZM15.973 15.354C16.7503 14.4433 17.2823 13.52 17.569 12.584C17.8563 11.6473 18 10.5923 18 9.419L16.73 8.527L14.908 9.054L13.419 13.596L14.4 15.216L15.973 15.354Z" fill="#646464"/>
</svg>
