<svg width="20" height="20" viewBox="0 0 20 20" fill="none" xmlns="http://www.w3.org/2000/svg">
<path d="M12.2498 16.7497H7.74992M12.2498 16.7497C12.2498 16.1075 12.2498 15.7865 12.2841 15.5734C12.3946 14.8864 12.414 14.8431 12.8521 14.3024C12.9879 14.1348 13.4923 13.6832 14.5009 12.78C15.8812 11.5441 16.7498 9.74843 16.7498 7.74988C16.7498 4.02202 13.7277 1 9.99988 1C6.27202 1 3.25 4.02202 3.25 7.74988C3.25 9.74843 4.11858 11.5441 5.49884 12.78C6.50745 13.6832 7.01181 14.1348 7.14767 14.3024C7.58578 14.8431 7.60511 14.8864 7.71564 15.5734C7.74992 15.7865 7.74992 16.1075 7.74992 16.7497M12.2498 16.7497C12.2498 17.5909 12.2498 18.0114 12.069 18.3247C11.9505 18.5299 11.7801 18.7003 11.5748 18.8188C11.2616 18.9997 10.841 18.9997 9.99988 18.9997C9.15874 18.9997 8.73817 18.9997 8.42491 18.8188C8.21968 18.7003 8.04927 18.5299 7.93078 18.3247C7.74992 18.0114 7.74992 17.5909 7.74992 16.7497" stroke="#646464" stroke-width="1.61997"/>
<path d="M10.7067 6.8501L8.77813 9.55005H11.4781L9.54955 12.25" stroke="#646464" stroke-width="1.61997" stroke-linecap="round" stroke-linejoin="round"/>
</svg>
