<svg width="20" height="20" viewBox="0 0 20 20" fill="none" xmlns="http://www.w3.org/2000/svg">
<path d="M9.55833 18.3334C6.23167 18.3334 4.5675 18.3334 3.53333 17.3567C2.5 16.3809 2.5 14.8092 2.5 11.6667V8.33341C2.5 5.19091 2.5 3.61925 3.53333 2.64341C4.5675 1.66675 6.23167 1.66675 9.55833 1.66675H10.4417C13.7692 1.66675 15.4325 1.66675 16.4667 2.64341C17.5 3.61925 17.5 5.19091 17.5 8.33341M9.58333 18.3334H10.8333M6.66667 5.83341H13.3333M6.66667 10.0001H10.8333" stroke="#646464" stroke-width="1.5" stroke-linecap="round" stroke-linejoin="round"/>
<path d="M14.583 15.4918L13.8313 18.1193C13.8238 18.1491 13.8246 18.1804 13.8337 18.2098C13.8428 18.2392 13.8599 18.2654 13.883 18.2857C13.9061 18.306 13.9344 18.3194 13.9647 18.3246C13.995 18.3298 14.0261 18.3266 14.0547 18.3152L15.7088 17.6543C15.7885 17.6223 15.8775 17.6223 15.9572 17.6543L17.6272 18.321C17.6551 18.3321 17.6856 18.3355 17.7153 18.3308C17.745 18.326 17.7728 18.3133 17.7959 18.294C17.819 18.2747 17.8364 18.2495 17.8463 18.2211C17.8562 18.1927 17.8582 18.1621 17.8522 18.1327L17.2155 15.4093M18.333 13.3293C18.3319 12.667 18.068 12.0322 17.5993 11.5643C17.1306 11.0963 16.4953 10.8335 15.833 10.8335C14.4522 10.8335 13.333 11.951 13.333 13.3293C13.3332 13.6574 13.3981 13.9822 13.5238 14.2851C13.6496 14.5881 13.8338 14.8634 14.066 15.0951C14.2981 15.3269 14.5737 15.5107 14.8769 15.6359C15.1801 15.7612 15.505 15.8255 15.833 15.8252C17.2138 15.8252 18.333 14.7085 18.333 13.3293Z" stroke="#646464" stroke-width="1.5" stroke-linecap="round" stroke-linejoin="round"/>
</svg>
