<svg width="20" height="20" viewBox="0 0 20 20" fill="none" xmlns="http://www.w3.org/2000/svg">
<path d="M17.4793 9.84535L16.7403 9.97315L16.7403 9.97315L17.4793 9.84535ZM16.8914 6.44555L16.1523 6.57335L16.1523 6.57335L16.8914 6.44555ZM5.78148 2.93545L5.03426 2.87084L5.03426 2.87084L5.78148 2.93545ZM5.10467 10.7627L5.85188 10.8273L5.85188 10.8273L5.10467 10.7627ZM11.6625 15.6485L12.4026 15.5272L12.4026 15.5272L11.6625 15.6485ZM11.1102 12.278L11.8504 12.1568L11.8504 12.1568L11.1102 12.278ZM5.58178 11.9351L5.09219 12.5033L5.09219 12.5033L5.58178 11.9351ZM6.78073 12.9683L7.27032 12.4001L7.27032 12.4001L6.78073 12.9683ZM8.76504 16.0132L8.03907 16.2015L8.03907 16.2015L8.76504 16.0132ZM9.16147 17.5414L9.88744 17.3531L9.88744 17.3531L9.16147 17.5414ZM10.5563 18.2794L10.3269 17.5653L10.3269 17.5653L10.5563 18.2794ZM10.6771 18.2406L10.9065 18.9546L10.9065 18.9546L10.6771 18.2406ZM8.21829 14.6142L8.87982 14.2608L8.87982 14.2608L8.21829 14.6142ZM11.5872 17.2934L10.8613 17.1051L10.8613 17.1051L11.5872 17.2934ZM9.7285 18.2227L9.40292 18.8983L9.40292 18.8983L9.7285 18.2227ZM3.30967 2.10741L2.56245 2.0428L2.56245 2.0428L3.30967 2.10741ZM2.5 11.4712L3.24721 11.5358C3.21261 11.9359 2.86893 12.2378 2.46767 12.2205C2.0664 12.2032 1.75 11.8728 1.75 11.4712H2.5ZM16.7403 9.97315L16.1523 6.57335L17.6304 6.31774L18.2183 9.71754L16.7403 9.97315ZM11.0375 2.41634H7.16362V0.91634H11.0375V2.41634ZM6.52869 3.00006L5.85188 10.8273L4.35746 10.6981L5.03426 2.87084L6.52869 3.00006ZM16.1523 6.57335C15.7409 4.19433 13.5936 2.41634 11.0375 2.41634V0.91634C14.2835 0.91634 17.0879 3.18103 17.6304 6.31774L16.1523 6.57335ZM10.9223 15.7698L10.3701 12.3993L11.8504 12.1568L12.4026 15.5272L10.9223 15.7698ZM6.07138 11.3669L7.27032 12.4001L6.29114 13.5364L5.09219 12.5033L6.07138 11.3669ZM9.49102 15.8249L9.88744 17.3531L8.4355 17.7298L8.03907 16.2015L9.49102 15.8249ZM10.3269 17.5653L10.4477 17.5265L10.9065 18.9546L10.7857 18.9934L10.3269 17.5653ZM8.87982 14.2608C9.14441 14.7561 9.34988 15.2808 9.49102 15.8249L8.03907 16.2015C7.92794 15.7731 7.76595 15.3592 7.55676 14.9675L8.87982 14.2608ZM10.4477 17.5265C10.6639 17.4571 10.8128 17.2919 10.8613 17.1051L12.3132 17.4817C12.1308 18.1848 11.5932 18.734 10.9065 18.9546L10.4477 17.5265ZM9.88744 17.3531C9.90711 17.4289 9.96318 17.5032 10.0541 17.547L9.40292 18.8983C8.92757 18.6693 8.56938 18.2459 8.4355 17.7298L9.88744 17.3531ZM10.0541 17.547C10.1374 17.5872 10.2364 17.5944 10.3269 17.5653L10.7857 18.9934C10.3306 19.1397 9.83407 19.1061 9.40292 18.8983L10.0541 17.547ZM11.7947 10.7212H16.1123V12.2212H11.7947V10.7212ZM4.05688 2.17202L3.24721 11.5358L1.75279 11.4066L2.56245 2.0428L4.05688 2.17202ZM3.25 2.07239V11.4712H1.75V2.07239H3.25ZM2.56245 2.0428C2.54516 2.24278 2.70278 2.41634 2.90559 2.41634V0.91634C3.584 0.91634 4.11519 1.49766 4.05688 2.17202L2.56245 2.0428ZM12.4026 15.5272C12.5092 16.1778 12.4787 16.8436 12.3132 17.4817L10.8613 17.1051C10.9744 16.6691 10.9952 16.2143 10.9223 15.7698L12.4026 15.5272ZM7.16362 2.41634C6.83368 2.41634 6.5573 2.66913 6.52869 3.00006L5.03426 2.87084C5.12981 1.76586 6.05394 0.91634 7.16362 0.91634V2.41634ZM7.27032 12.4001C7.83892 12.8901 8.46472 13.4837 8.87982 14.2608L7.55676 14.9675C7.27961 14.4487 6.8351 14.0052 6.29114 13.5364L7.27032 12.4001ZM18.2183 9.71754C18.4443 11.0242 17.4394 12.2212 16.1123 12.2212V10.7212C16.5068 10.7212 16.808 10.3648 16.7403 9.97315L18.2183 9.71754ZM2.90559 2.41634C3.0966 2.41634 3.25 2.26155 3.25 2.07239H1.75C1.75 1.43472 2.26657 0.91634 2.90559 0.91634V2.41634ZM10.3701 12.3993C10.2262 11.521 10.9032 10.7212 11.7947 10.7212V12.2212C11.8304 12.2212 11.8557 12.1895 11.8504 12.1568L10.3701 12.3993ZM5.85188 10.8273C5.83416 11.0323 5.916 11.2331 6.07138 11.3669L5.09219 12.5033C4.57147 12.0545 4.29825 11.3828 4.35746 10.6981L5.85188 10.8273Z" fill="#646464"/>
</svg>
