<svg width="20" height="20" viewBox="0 0 20 20" fill="none" xmlns="http://www.w3.org/2000/svg">
<path d="M16.3051 12.1714V16.1194C16.3049 16.678 16.0829 17.2136 15.6879 17.6086C15.2929 18.0036 14.7572 18.2256 14.1987 18.2258H3.88335C3.60571 18.2257 3.33082 18.1707 3.0745 18.0641C2.81817 17.9574 2.58545 17.8011 2.3897 17.6042C2.19396 17.4073 2.03906 17.1737 1.93389 16.9167C1.82872 16.6598 1.77537 16.3846 1.77689 16.1069V5.80318C1.77524 5.52598 1.82862 5.2512 1.93394 4.99478C2.03926 4.73836 2.19442 4.5054 2.39044 4.30938C2.58645 4.11337 2.81942 3.9582 3.07584 3.85288C3.33226 3.74757 3.60703 3.69419 3.88423 3.69584H7.83128" stroke="#191919" stroke-width="1.30006" stroke-linecap="round" stroke-linejoin="round"/>
<path d="M16.3045 7.32767L12.6723 3.6945M5.40771 13.3812V11.4561C5.40949 11.1387 5.53576 10.8337 5.75894 10.6087L14.2345 2.13311C14.3471 2.01961 14.4811 1.92952 14.6286 1.86804C14.7762 1.80656 14.9345 1.7749 15.0944 1.7749C15.2542 1.7749 15.4125 1.80656 15.5601 1.86804C15.7077 1.92952 15.8416 2.01961 15.9542 2.13311L17.8668 4.04573C17.9805 4.15819 18.0708 4.29209 18.1324 4.43968C18.1941 4.58727 18.2258 4.74562 18.2258 4.90556C18.2258 5.06549 18.1941 5.22384 18.1324 5.37143C18.0708 5.51902 17.9805 5.65293 17.8668 5.76539L9.39121 14.241C9.16579 14.4647 8.86144 14.5909 8.54383 14.5922H6.61877C6.29758 14.5922 5.98954 14.4646 5.76242 14.2375C5.53531 14.0104 5.40771 13.7024 5.40771 13.3812Z" stroke="#191919" stroke-width="1.30006" stroke-linecap="round" stroke-linejoin="round"/>
</svg>
